<?xml version="1.0" standalone="no"?>
<!DOCTYPE svg PUBLIC "-//W3C//DTD SVG 20010904//EN"
 "http://www.w3.org/TR/2001/REC-SVG-20010904/DTD/svg10.dtd">
<svg version="1.0" xmlns="http://www.w3.org/2000/svg"
 width="260.000000pt" height="260.000000pt" viewBox="0 0 260.000000 260.000000"
 preserveAspectRatio="xMidYMid meet">
<metadata>
Created by potrace 1.14, written by Peter Selinger 2001-2017
</metadata>
<g transform="translate(0.000000,260.000000) scale(0.100000,-0.100000)"
fill="#000000" stroke="none">
<path d="M1105 2586 l-70 -11 -1 -124 c-1 -154 16 -239 59 -306 45 -68 64
-120 66 -185 5 -118 -68 -235 -178 -284 -195 -87 -415 48 -426 262 -4 63 12
119 49 182 43 71 54 108 64 207 11 119 10 120 -80 59 -149 -98 -295 -246 -387
-391 -80 -128 -156 -317 -176 -441 l-6 -41 1280 0 c942 0 1281 2 1281 11 0 24
-40 175 -60 227 -82 211 -215 400 -381 542 -67 56 -189 138 -198 132 -10 -5 6
-171 20 -214 6 -20 27 -61 45 -91 49 -80 61 -153 40 -237 -37 -150 -158 -240
-311 -231 -85 6 -143 33 -202 94 -101 105 -109 260 -20 392 45 67 58 123 64
283 l6 147 -34 7 c-66 15 -85 17 -229 19 -80 2 -176 -2 -215 -8z"/>
<path d="M5 1210 c3 -50 8 -100 11 -113 2 -12 6 -33 9 -47 11 -59 17 -80 23
-81 4 0 224 -2 490 -2 l483 -2 27 35 c112 149 308 177 441 63 139 -119 150
-320 24 -447 -126 -127 -346 -115 -451 25 l-36 49 -439 0 c-348 0 -437 -3
-431 -12 227 -379 538 -595 958 -666 84 -14 347 -7 436 12 269 58 491 177 672
362 228 233 354 514 374 832 l5 82 -1302 0 -1301 0 7 -90z"/>
</g>
</svg>
