<svg width="1165" height="252" viewBox="0 0 1165 252" fill="none" xmlns="http://www.w3.org/2000/svg">
<path fill-rule="evenodd" clip-rule="evenodd" d="M126 0C135.369 0 144.499 1.02256 153.285 2.96216L153.285 3.33038C153.292 19.937 153.298 34.9144 147.434 43.8213C143.1 48.9537 140.487 55.5875 140.487 62.8315C140.487 79.1121 153.685 92.3101 169.965 92.3101C186.246 92.3101 199.444 79.1121 199.444 62.8315C199.444 55.6976 196.961 49.2155 192.697 44.0614C188.676 36.8279 187.803 27.0804 187.793 16.1671C220.429 34.5677 244.04 67.0937 250.332 105.449H1.6676C8.02435 66.6989 32.0593 33.8988 65.2178 15.6034C65.2369 26.7446 64.4034 36.7034 60.314 44.0612C56.0495 49.2154 53.5668 55.6975 53.5668 62.8315C53.5668 79.1121 66.7648 92.3101 83.0454 92.3101C99.326 92.3101 112.524 79.1121 112.524 62.8315C112.524 55.5876 109.911 48.954 105.576 43.8216C99.7126 34.9147 99.7188 19.9371 99.7257 3.33027L99.7259 2.74339C108.2 0.945749 116.99 0 126 0ZM126 252C195.588 252 252 195.588 252 126H0C0 137.181 1.45626 148.021 4.18946 158.342H99.5205C104.383 148.747 114.339 142.171 125.832 142.171C142.112 142.171 155.31 155.369 155.31 171.65C155.31 187.93 142.112 201.128 125.832 201.128C114.339 201.128 104.383 194.552 99.5205 184.957H14.616C35.7688 224.837 77.7123 252 126 252Z" fill="#1B3E5C"/>
<rect x="302" width="11" height="252" fill="#1B3E5C"/>
<path d="M461 41.5L440.4 111H427.5L412.9 58.4L397.4 111L384.6 111.1L364.9 41.5H377L391.4 98.1L407 41.5H419.8L434.3 97.8L448.8 41.5H461ZM528.302 96.8H499.202L494.202 111H482.302L507.202 41.4H520.402L545.302 111H533.302L528.302 96.8ZM525.102 87.5L513.802 55.2L502.402 87.5H525.102ZM608.229 111L592.229 83.2H583.529V111H572.129V41.5H596.129C601.462 41.5 605.962 42.4333 609.629 44.3C613.362 46.1667 616.129 48.6667 617.929 51.8C619.796 54.9333 620.729 58.4333 620.729 62.3C620.729 66.8333 619.396 70.9667 616.729 74.7C614.129 78.3667 610.096 80.8667 604.629 82.2L621.829 111H608.229ZM583.529 74.1H596.129C600.396 74.1 603.596 73.0333 605.729 70.9C607.929 68.7667 609.029 65.9 609.029 62.3C609.029 58.7 607.962 55.9 605.829 53.9C603.696 51.8333 600.462 50.8 596.129 50.8H583.529V74.1ZM708.413 111H697.013L662.713 59.1V111H651.313V41.4H662.713L697.013 93.2V41.4H708.413V111ZM781.283 96.8H752.183L747.183 111H735.283L760.183 41.4H773.383L798.283 111H786.283L781.283 96.8ZM778.083 87.5L766.783 55.2L755.383 87.5H778.083ZM904.986 41.5V91.6C904.986 97.8 903.086 102.7 899.286 106.3C895.553 109.9 890.619 111.7 884.486 111.7C878.353 111.7 873.386 109.9 869.586 106.3C865.853 102.7 863.986 97.8 863.986 91.6H875.486C875.553 94.6667 876.319 97.1 877.786 98.9C879.319 100.7 881.553 101.6 884.486 101.6C887.419 101.6 889.653 100.7 891.186 98.9C892.719 97.0333 893.486 94.6 893.486 91.6V41.5H904.986ZM981.431 96.8H952.331L947.331 111H935.431L960.331 41.4H973.531L998.431 111H986.431L981.431 96.8ZM978.231 87.5L966.931 55.2L955.531 87.5H978.231ZM1076.76 41.5L1053.76 85.8V111H1042.36V85.8L1019.26 41.5H1031.96L1048.06 75.6L1064.16 41.5H1076.76ZM1143.7 96.8H1114.6L1109.6 111H1097.7L1122.6 41.4H1135.8L1160.7 111H1148.7L1143.7 96.8ZM1140.5 87.5L1129.2 55.2L1117.8 87.5H1140.5Z" fill="#1B3E5C"/>
<path d="M377.88 201.96C375.96 201.96 374.12 201.747 372.36 201.32C370.6 200.947 368.76 200.253 366.84 199.24C366.413 198.973 366.253 198.467 366.36 197.72L367.96 186.92C367.96 186.653 368.093 186.52 368.36 186.52C368.68 186.52 368.867 186.653 368.92 186.92C369.293 191.027 370.387 194.307 372.2 196.76C374.013 199.213 376.573 200.44 379.88 200.44C382.387 200.44 384.573 199.693 386.44 198.2C388.307 196.707 389.48 194.467 389.96 191.48C390.12 190.68 390.2 189.933 390.2 189.24C390.2 186.68 389.427 184.52 387.88 182.76C386.387 180.947 384.227 179.027 381.4 177C379.427 175.56 377.853 174.333 376.68 173.32C375.56 172.307 374.6 171.107 373.8 169.72C373 168.333 372.6 166.733 372.6 164.92C372.6 164.12 372.68 163.32 372.84 162.52C373.587 158.573 375.56 155.533 378.76 153.4C382.013 151.213 385.613 150.12 389.56 150.12C392.493 150.12 395.453 150.76 398.44 152.04C399.133 152.413 399.453 152.867 399.4 153.4L398.28 162.76C398.28 162.973 398.12 163.08 397.8 163.08C397.533 163.08 397.4 162.973 397.4 162.76C396.973 159.4 396.013 156.68 394.52 154.6C393.027 152.52 390.84 151.48 387.96 151.48C385.827 151.48 384.067 152.04 382.68 153.16C381.293 154.227 380.253 155.56 379.56 157.16C378.92 158.76 378.6 160.333 378.6 161.88C378.6 163.533 378.973 165 379.72 166.28C380.52 167.56 381.453 168.68 382.52 169.64C383.587 170.547 385.133 171.72 387.16 173.16C390.253 175.347 392.6 177.373 394.2 179.24C395.8 181.107 396.6 183.4 396.6 186.12C396.6 187.08 396.547 187.827 396.44 188.36C395.747 192.307 393.773 195.56 390.52 198.12C387.267 200.68 383.053 201.96 377.88 201.96ZM436.108 194.84C436.161 194.787 436.241 194.76 436.348 194.76C436.508 194.76 436.641 194.867 436.748 195.08C436.854 195.24 436.854 195.373 436.748 195.48C434.881 197.667 433.201 199.267 431.707 200.28C430.214 201.24 428.748 201.72 427.308 201.72C426.241 201.72 425.468 201.427 424.988 200.84C424.508 200.253 424.267 199.293 424.267 197.96C424.267 197.107 424.401 195.88 424.667 194.28L426.268 185.16C424.347 190.493 422.081 194.653 419.467 197.64C416.908 200.573 414.214 202.04 411.388 202.04C407.814 202.04 406.027 200.013 406.027 195.96C406.027 194.947 406.214 193.453 406.587 191.48L409.467 177.24C409.627 176.44 409.707 175.773 409.707 175.24C409.707 173.64 409.201 172.84 408.187 172.84C407.654 172.84 406.987 173.133 406.187 173.72C405.441 174.307 404.481 175.16 403.307 176.28C403.201 176.387 403.094 176.44 402.987 176.44C402.827 176.44 402.694 176.36 402.587 176.2C402.481 175.987 402.507 175.8 402.667 175.64C404.534 173.507 406.161 171.933 407.547 170.92C408.934 169.907 410.321 169.4 411.707 169.4C413.787 169.4 414.827 170.707 414.827 173.32C414.827 174.333 414.667 175.64 414.348 177.24L411.787 189.96C411.467 191.56 411.307 192.92 411.307 194.04C411.307 196.973 412.374 198.44 414.508 198.44C416.214 198.44 417.974 197.347 419.788 195.16C421.601 192.973 423.281 189.8 424.827 185.64C426.427 181.48 427.734 176.547 428.747 170.84C428.854 170.413 429.174 170.093 429.708 169.88C430.241 169.613 430.988 169.48 431.948 169.48C433.334 169.48 434.028 169.667 434.028 170.04L433.707 171.64C433.227 173.933 432.934 175.4 432.828 176.04L429.548 193.88C429.441 194.36 429.388 195.027 429.388 195.88C429.388 197.533 429.868 198.36 430.828 198.36C431.468 198.36 432.241 198.067 433.148 197.48C434.054 196.84 435.041 195.96 436.108 194.84ZM462.569 169.4C463.689 169.4 464.756 169.8 465.769 170.6C466.783 171.4 467.289 172.333 467.289 173.4C467.289 174.2 466.996 174.92 466.409 175.56C465.876 176.147 465.183 176.44 464.329 176.44C463.743 176.44 463.263 176.333 462.889 176.12C462.516 175.853 462.116 175.48 461.689 175C461.423 174.733 461.129 174.493 460.809 174.28C460.543 174.013 460.223 173.88 459.849 173.88C458.783 173.88 457.476 175.4 455.929 178.44C454.436 181.427 452.996 185.027 451.609 189.24C450.276 193.4 449.289 197.08 448.649 200.28C448.543 200.707 448.223 201.027 447.689 201.24C447.156 201.507 446.436 201.64 445.529 201.64C444.143 201.64 443.449 201.453 443.449 201.08C443.503 200.76 443.663 199.933 443.929 198.6C444.249 197.267 444.489 196.093 444.649 195.08L447.529 179.32C447.743 178.093 447.849 176.973 447.849 175.96C447.849 173.827 447.263 172.76 446.089 172.76C444.969 172.76 443.396 173.773 441.369 175.8C441.316 175.853 441.236 175.88 441.129 175.88C440.969 175.88 440.836 175.8 440.729 175.64C440.623 175.427 440.623 175.267 440.729 175.16C442.436 173.187 444.009 171.747 445.449 170.84C446.889 169.88 448.303 169.4 449.689 169.4C450.809 169.4 451.636 169.747 452.169 170.44C452.703 171.133 452.969 172.307 452.969 173.96C452.969 175.24 452.809 176.893 452.489 178.92L450.809 188.28C452.516 182.787 454.383 178.28 456.409 174.76C458.489 171.187 460.543 169.4 462.569 169.4ZM498.593 194.84C498.646 194.787 498.726 194.76 498.833 194.76C498.993 194.76 499.126 194.867 499.233 195.08C499.339 195.24 499.339 195.373 499.233 195.48C497.473 197.56 495.873 199.133 494.433 200.2C492.993 201.213 491.606 201.72 490.273 201.72C489.206 201.72 488.406 201.4 487.873 200.76C487.393 200.12 487.153 199.107 487.153 197.72C487.153 196.867 487.286 195.587 487.553 193.88L488.833 186.28C486.539 191.133 483.899 194.973 480.913 197.8C477.926 200.627 475.019 202.04 472.193 202.04C470.593 202.04 469.339 201.56 468.433 200.6C467.579 199.587 467.153 198.067 467.153 196.04C467.153 195.56 467.206 194.787 467.313 193.72C467.846 190.04 469.259 186.28 471.553 182.44C473.899 178.547 476.646 175.347 479.793 172.84C482.939 170.333 485.899 169.08 488.673 169.08C490.913 169.08 492.726 169.8 494.113 171.24C495.126 170.387 495.819 169.453 496.193 168.44C496.299 168.333 496.406 168.28 496.513 168.28C496.673 168.28 496.833 168.333 496.993 168.44C497.153 168.493 497.206 168.547 497.153 168.6L492.513 193.88C492.353 194.68 492.273 195.4 492.273 196.04C492.273 197.533 492.726 198.28 493.633 198.28C494.753 198.28 496.406 197.133 498.593 194.84ZM475.793 197.48C477.606 197.48 479.499 196.547 481.473 194.68C483.499 192.813 485.286 190.467 486.833 187.64C488.433 184.813 489.499 182.093 490.033 179.48C490.193 178.733 490.273 178.013 490.273 177.32C490.273 175.773 489.873 174.547 489.073 173.64C488.273 172.733 487.126 172.28 485.633 172.28C483.819 172.28 482.006 173.027 480.193 174.52C478.379 175.96 476.806 177.96 475.473 180.52C474.139 183.08 473.233 185.96 472.753 189.16C472.539 190.867 472.433 191.987 472.433 192.52C472.433 195.827 473.553 197.48 475.793 197.48ZM528.714 169.08C530.741 169.08 532.341 169.853 533.514 171.4C534.688 172.947 535.274 175 535.274 177.56C535.274 178.733 535.168 179.853 534.954 180.92C534.101 185.24 532.448 189 529.994 192.2C527.594 195.4 524.874 197.853 521.834 199.56C518.794 201.213 515.968 202.04 513.354 202.04C510.848 202.04 508.848 201.507 507.354 200.44C505.861 199.32 505.114 197.853 505.114 196.04C505.114 195.72 505.168 195.24 505.274 194.6L513.194 152.2C513.301 151.72 513.354 151.107 513.354 150.36C513.354 148.867 512.794 148.12 511.674 148.12C510.821 148.12 509.568 148.52 507.914 149.32H507.834C507.621 149.32 507.461 149.187 507.354 148.92C507.301 148.6 507.381 148.413 507.594 148.36L518.554 143H518.714C518.928 143 519.114 143.08 519.274 143.24C519.488 143.4 519.568 143.533 519.514 143.64L512.394 183.24C514.208 179.027 516.581 175.613 519.514 173C522.501 170.387 525.568 169.08 528.714 169.08ZM528.874 183.4C529.194 181.96 529.354 180.573 529.354 179.24C529.354 177.373 528.981 175.907 528.234 174.84C527.541 173.773 526.448 173.24 524.954 173.24C522.821 173.24 520.794 174.093 518.874 175.8C516.954 177.453 515.248 179.8 513.754 182.84C512.314 185.88 511.248 189.373 510.554 193.32C510.501 193.587 510.474 193.96 510.474 194.44C510.474 196.093 511.034 197.427 512.154 198.44C513.274 199.453 514.741 199.96 516.554 199.96C518.261 199.96 519.941 199.293 521.594 197.96C523.301 196.627 524.794 194.707 526.074 192.2C527.354 189.693 528.288 186.76 528.874 183.4ZM570.349 194.84C570.402 194.787 570.482 194.76 570.589 194.76C570.749 194.76 570.882 194.867 570.989 195.08C571.095 195.24 571.095 195.373 570.989 195.48C569.229 197.56 567.629 199.133 566.189 200.2C564.749 201.213 563.362 201.72 562.029 201.72C560.962 201.72 560.162 201.4 559.629 200.76C559.149 200.12 558.909 199.107 558.909 197.72C558.909 196.867 559.042 195.587 559.309 193.88L560.589 186.28C558.295 191.133 555.655 194.973 552.669 197.8C549.682 200.627 546.775 202.04 543.949 202.04C542.349 202.04 541.095 201.56 540.189 200.6C539.335 199.587 538.909 198.067 538.909 196.04C538.909 195.56 538.962 194.787 539.069 193.72C539.602 190.04 541.015 186.28 543.309 182.44C545.655 178.547 548.402 175.347 551.549 172.84C554.695 170.333 557.655 169.08 560.429 169.08C562.669 169.08 564.482 169.8 565.869 171.24C566.882 170.387 567.575 169.453 567.949 168.44C568.055 168.333 568.162 168.28 568.269 168.28C568.429 168.28 568.589 168.333 568.749 168.44C568.909 168.493 568.962 168.547 568.909 168.6L564.269 193.88C564.109 194.68 564.029 195.4 564.029 196.04C564.029 197.533 564.482 198.28 565.389 198.28C566.509 198.28 568.162 197.133 570.349 194.84ZM547.549 197.48C549.362 197.48 551.255 196.547 553.229 194.68C555.255 192.813 557.042 190.467 558.589 187.64C560.189 184.813 561.255 182.093 561.789 179.48C561.949 178.733 562.029 178.013 562.029 177.32C562.029 175.773 561.629 174.547 560.829 173.64C560.029 172.733 558.882 172.28 557.389 172.28C555.575 172.28 553.762 173.027 551.949 174.52C550.135 175.96 548.562 177.96 547.229 180.52C545.895 183.08 544.989 185.96 544.509 189.16C544.295 190.867 544.189 191.987 544.189 192.52C544.189 195.827 545.309 197.48 547.549 197.48ZM602.631 169.32C603.751 169.32 604.604 169.747 605.191 170.6C605.777 171.453 606.071 172.627 606.071 174.12C606.071 178.333 603.964 184.467 599.751 192.52C595.591 200.573 590.791 207.747 585.351 214.04C579.911 220.333 575.404 223.48 571.831 223.48C570.711 223.48 569.804 223.213 569.111 222.68C568.417 222.2 568.071 221.427 568.071 220.36L568.151 219.64C568.577 217.88 569.804 217 571.831 217C572.364 217 573.217 217.053 574.391 217.16C575.457 217.267 576.257 217.32 576.791 217.32C578.551 217.32 580.017 216.867 581.191 215.96C582.737 214.947 584.764 212.733 587.271 209.32L587.351 205.16C587.351 195.027 586.551 187.187 584.951 181.64C583.404 176.04 581.271 173.24 578.551 173.24C577.857 173.24 577.164 173.48 576.471 173.96C575.777 174.44 575.191 175.133 574.711 176.04C574.657 176.2 574.497 176.28 574.231 176.28C573.857 176.28 573.697 176.12 573.751 175.8C574.711 173.773 575.911 172.2 577.351 171.08C578.791 169.96 580.257 169.4 581.751 169.4C583.937 169.4 585.804 170.653 587.351 173.16C588.951 175.667 590.151 179.107 590.951 183.48C591.804 187.8 592.231 192.653 592.231 198.04C592.231 199.907 592.204 201.32 592.151 202.28C594.337 198.867 596.257 195.507 597.911 192.2C599.617 188.893 600.711 186.36 601.191 184.6C601.457 183.267 601.591 182.2 601.591 181.4C601.591 180.28 601.457 179.267 601.191 178.36C600.924 177.453 600.551 176.467 600.071 175.4C599.857 174.867 599.644 174.36 599.431 173.88C599.271 173.347 599.191 172.867 599.191 172.44C599.191 171.533 599.511 170.787 600.151 170.2C600.791 169.613 601.617 169.32 602.631 169.32ZM642.105 194.84C642.158 194.787 642.238 194.76 642.345 194.76C642.505 194.76 642.638 194.867 642.745 195.08C642.852 195.24 642.852 195.373 642.745 195.48C640.985 197.56 639.385 199.133 637.945 200.2C636.505 201.213 635.118 201.72 633.785 201.72C632.718 201.72 631.918 201.4 631.385 200.76C630.905 200.12 630.665 199.107 630.665 197.72C630.665 196.867 630.798 195.587 631.065 193.88L632.345 186.28C630.052 191.133 627.412 194.973 624.425 197.8C621.438 200.627 618.532 202.04 615.705 202.04C614.105 202.04 612.852 201.56 611.945 200.6C611.092 199.587 610.665 198.067 610.665 196.04C610.665 195.56 610.718 194.787 610.825 193.72C611.358 190.04 612.772 186.28 615.065 182.44C617.412 178.547 620.158 175.347 623.305 172.84C626.452 170.333 629.412 169.08 632.185 169.08C634.425 169.08 636.238 169.8 637.625 171.24C638.638 170.387 639.332 169.453 639.705 168.44C639.812 168.333 639.918 168.28 640.025 168.28C640.185 168.28 640.345 168.333 640.505 168.44C640.665 168.493 640.718 168.547 640.665 168.6L636.025 193.88C635.865 194.68 635.785 195.4 635.785 196.04C635.785 197.533 636.238 198.28 637.145 198.28C638.265 198.28 639.918 197.133 642.105 194.84ZM619.305 197.48C621.118 197.48 623.012 196.547 624.985 194.68C627.012 192.813 628.798 190.467 630.345 187.64C631.945 184.813 633.012 182.093 633.545 179.48C633.705 178.733 633.785 178.013 633.785 177.32C633.785 175.773 633.385 174.547 632.585 173.64C631.785 172.733 630.638 172.28 629.145 172.28C627.332 172.28 625.518 173.027 623.705 174.52C621.892 175.96 620.318 177.96 618.985 180.52C617.652 183.08 616.745 185.96 616.265 189.16C616.052 190.867 615.945 191.987 615.945 192.52C615.945 195.827 617.065 197.48 619.305 197.48Z" fill="#1B3E5C"/>
</svg>
