<svg width="550" height="119" viewBox="0 0 550 119" fill="none" xmlns="http://www.w3.org/2000/svg">
<path fill-rule="evenodd" clip-rule="evenodd" d="M59.485 0C63.9081 0 68.2184 0.482752 72.3662 1.39844L72.3663 1.57228C72.3695 9.41239 72.3725 16.4833 69.6041 20.6883C67.5577 23.1113 66.3242 26.2431 66.3242 29.663C66.3242 37.3491 72.555 43.5799 80.2411 43.5799C87.9272 43.5799 94.158 37.3491 94.158 29.663C94.158 26.295 92.986 23.2348 90.9727 20.8015C89.0747 17.3865 88.6623 12.7847 88.6575 7.6325C104.065 16.3195 115.212 31.6751 118.183 49.7829H0.787276C3.78831 31.4888 15.1353 16.0037 30.7895 7.36644C30.7985 12.6262 30.405 17.3278 28.4743 20.8015C26.4611 23.2348 25.289 26.295 25.289 29.663C25.289 37.3491 31.5199 43.5799 39.206 43.5799C46.8921 43.5799 53.1229 37.3491 53.1229 29.663C53.1229 26.2431 51.8894 23.1113 49.843 20.6883C47.0746 16.4833 47.0775 9.41237 47.0808 1.57223L47.0809 1.29517C51.0817 0.446492 55.2312 0 59.485 0ZM59.485 118.97C92.3376 118.97 118.97 92.3376 118.97 59.485H0C0 64.7634 0.687507 69.8812 1.97786 74.7539H46.9839C49.2795 70.2241 53.9799 67.1194 59.4055 67.1194C67.0916 67.1194 73.3224 73.3502 73.3224 81.0364C73.3224 88.7225 67.0916 94.9533 59.4055 94.9533C53.9799 94.9533 49.2795 91.8486 46.9839 87.3189H6.90028C16.8866 106.146 36.6882 118.97 59.485 118.97Z" fill="#1B3E5C"/>
<rect x="142.575" width="5.19313" height="118.97" fill="#1B3E5C"/>
<path d="M217.433 19.6097L207.751 52.2747H201.688L194.826 27.5527L187.541 52.2747L181.525 52.3217L172.266 19.6097H177.953L184.721 46.2117L192.053 19.6097H198.069L204.884 46.0707L211.699 19.6097H217.433ZM249.066 45.6007H235.389L233.039 52.2747H227.446L239.149 19.5627H245.353L257.056 52.2747H251.416L249.066 45.6007ZM247.562 41.2297L242.251 26.0487L236.893 41.2297H247.562ZM286.631 52.2747L279.111 39.2087H275.022V52.2747H269.664V19.6097H280.944C283.451 19.6097 285.566 20.0483 287.289 20.9257C289.044 21.803 290.344 22.978 291.19 24.4507C292.067 25.9233 292.506 27.5683 292.506 29.3857C292.506 31.5163 291.879 33.459 290.626 35.2137C289.404 36.937 287.508 38.112 284.939 38.7387L293.023 52.2747H286.631ZM275.022 34.9317H280.944C282.949 34.9317 284.453 34.4303 285.456 33.4277C286.49 32.425 287.007 31.0777 287.007 29.3857C287.007 27.6937 286.506 26.3777 285.503 25.4377C284.5 24.4663 282.981 23.9807 280.944 23.9807H275.022V34.9317ZM333.717 52.2747H328.359L312.238 27.8817V52.2747H306.88V19.5627H312.238L328.359 43.9087V19.5627H333.717V52.2747ZM367.966 45.6007H354.289L351.939 52.2747H346.346L358.049 19.5627H364.253L375.956 52.2747H370.316L367.966 45.6007ZM366.462 41.2297L361.151 26.0487L355.793 41.2297H366.462ZM426.107 19.6097V43.1567C426.107 46.0707 425.214 48.3737 423.428 50.0657C421.673 51.7577 419.354 52.6037 416.472 52.6037C413.589 52.6037 411.255 51.7577 409.469 50.0657C407.714 48.3737 406.837 46.0707 406.837 43.1567H412.242C412.273 44.598 412.633 45.7417 413.323 46.5877C414.043 47.4337 415.093 47.8567 416.472 47.8567C417.85 47.8567 418.9 47.4337 419.621 46.5877C420.341 45.7103 420.702 44.5667 420.702 43.1567V19.6097H426.107ZM462.036 45.6007H448.359L446.009 52.2747H440.416L452.119 19.5627H458.323L470.026 52.2747H464.386L462.036 45.6007ZM460.532 41.2297L455.221 26.0487L449.863 41.2297H460.532ZM506.84 19.6097L496.03 40.4307V52.2747H490.672V40.4307L479.815 19.6097H485.784L493.351 35.6367L500.918 19.6097H506.84ZM538.305 45.6007H524.628L522.278 52.2747H516.685L528.388 19.5627H534.592L546.295 52.2747H540.655L538.305 45.6007ZM536.801 41.2297L531.49 26.0487L526.132 41.2297H536.801Z" fill="#1B3E5C"/>
<path d="M178.255 94.65C177.367 94.65 176.516 94.5514 175.702 94.354C174.888 94.1814 174.037 93.8607 173.149 93.392C172.952 93.2687 172.878 93.0344 172.927 92.689L173.667 87.694C173.667 87.5707 173.729 87.509 173.852 87.509C174 87.509 174.087 87.5707 174.111 87.694C174.284 89.5934 174.79 91.1104 175.628 92.245C176.467 93.3797 177.651 93.947 179.18 93.947C180.34 93.947 181.351 93.6017 182.214 92.911C183.078 92.2204 183.62 91.1844 183.842 89.803C183.916 89.433 183.953 89.0877 183.953 88.767C183.953 87.583 183.596 86.584 182.88 85.77C182.19 84.9314 181.191 84.0434 179.883 83.106C178.971 82.44 178.243 81.8727 177.7 81.404C177.182 80.9354 176.738 80.3804 176.368 79.739C175.998 79.0977 175.813 78.3577 175.813 77.519C175.813 77.149 175.85 76.779 175.924 76.409C176.27 74.5837 177.182 73.1777 178.662 72.191C180.167 71.1797 181.832 70.674 183.657 70.674C185.014 70.674 186.383 70.97 187.764 71.562C188.085 71.7347 188.233 71.9444 188.208 72.191L187.69 76.52C187.69 76.6187 187.616 76.668 187.468 76.668C187.345 76.668 187.283 76.6187 187.283 76.52C187.086 74.966 186.642 73.708 185.951 72.746C185.261 71.784 184.249 71.303 182.917 71.303C181.931 71.303 181.117 71.562 180.475 72.08C179.834 72.5734 179.353 73.19 179.032 73.93C178.736 74.67 178.588 75.3977 178.588 76.113C178.588 76.8777 178.761 77.556 179.106 78.148C179.476 78.74 179.908 79.258 180.401 79.702C180.895 80.1214 181.61 80.664 182.547 81.33C183.978 82.3414 185.063 83.2787 185.803 84.142C186.543 85.0054 186.913 86.066 186.913 87.324C186.913 87.768 186.889 88.1134 186.839 88.36C186.519 90.1854 185.606 91.69 184.101 92.874C182.597 94.058 180.648 94.65 178.255 94.65ZM205.186 91.357C205.21 91.3324 205.247 91.32 205.297 91.32C205.371 91.32 205.432 91.3694 205.482 91.468C205.531 91.542 205.531 91.6037 205.482 91.653C204.618 92.6644 203.841 93.4044 203.151 93.873C202.46 94.317 201.782 94.539 201.116 94.539C200.622 94.539 200.265 94.4034 200.043 94.132C199.821 93.8607 199.71 93.4167 199.71 92.8C199.71 92.4054 199.771 91.838 199.895 91.098L200.635 86.88C199.747 89.3467 198.698 91.2707 197.49 92.652C196.306 94.0087 195.06 94.687 193.753 94.687C192.1 94.687 191.274 93.7497 191.274 91.875C191.274 91.4064 191.36 90.7157 191.533 89.803L192.865 83.217C192.939 82.847 192.976 82.5387 192.976 82.292C192.976 81.552 192.741 81.182 192.273 81.182C192.026 81.182 191.718 81.3177 191.348 81.589C191.002 81.8604 190.558 82.255 190.016 82.773C189.966 82.8224 189.917 82.847 189.868 82.847C189.794 82.847 189.732 82.81 189.683 82.736C189.633 82.6374 189.646 82.551 189.72 82.477C190.583 81.4904 191.335 80.7627 191.977 80.294C192.618 79.8254 193.259 79.591 193.901 79.591C194.863 79.591 195.344 80.1954 195.344 81.404C195.344 81.8727 195.27 82.477 195.122 83.217L193.938 89.1C193.79 89.84 193.716 90.469 193.716 90.987C193.716 92.3437 194.209 93.022 195.196 93.022C195.985 93.022 196.799 92.5164 197.638 91.505C198.476 90.4937 199.253 89.026 199.969 87.102C200.709 85.178 201.313 82.8964 201.782 80.257C201.831 80.0597 201.979 79.9117 202.226 79.813C202.472 79.6897 202.818 79.628 203.262 79.628C203.903 79.628 204.224 79.7144 204.224 79.887L204.076 80.627C203.854 81.6877 203.718 82.366 203.669 82.662L202.152 90.913C202.102 91.135 202.078 91.4434 202.078 91.838C202.078 92.6027 202.3 92.985 202.744 92.985C203.04 92.985 203.397 92.8494 203.817 92.578C204.236 92.282 204.692 91.875 205.186 91.357ZM217.424 79.591C217.942 79.591 218.436 79.776 218.904 80.146C219.373 80.516 219.607 80.9477 219.607 81.441C219.607 81.811 219.472 82.144 219.2 82.44C218.954 82.7114 218.633 82.847 218.238 82.847C217.967 82.847 217.745 82.7977 217.572 82.699C217.4 82.5757 217.215 82.403 217.017 82.181C216.894 82.0577 216.758 81.9467 216.61 81.848C216.487 81.7247 216.339 81.663 216.166 81.663C215.673 81.663 215.069 82.366 214.353 83.772C213.663 85.1534 212.997 86.8184 212.355 88.767C211.739 90.691 211.282 92.393 210.986 93.873C210.937 94.0704 210.789 94.2184 210.542 94.317C210.296 94.4404 209.963 94.502 209.543 94.502C208.902 94.502 208.581 94.4157 208.581 94.243C208.606 94.095 208.68 93.7127 208.803 93.096C208.951 92.4794 209.062 91.9367 209.136 91.468L210.468 84.179C210.567 83.6117 210.616 83.0937 210.616 82.625C210.616 81.6384 210.345 81.145 209.802 81.145C209.284 81.145 208.557 81.6137 207.619 82.551C207.595 82.5757 207.558 82.588 207.508 82.588C207.434 82.588 207.373 82.551 207.323 82.477C207.274 82.3784 207.274 82.3044 207.323 82.255C208.113 81.3424 208.84 80.6764 209.506 80.257C210.172 79.813 210.826 79.591 211.467 79.591C211.985 79.591 212.368 79.7514 212.614 80.072C212.861 80.3927 212.984 80.9354 212.984 81.7C212.984 82.292 212.91 83.0567 212.762 83.994L211.985 88.323C212.775 85.7824 213.638 83.698 214.575 82.07C215.537 80.4174 216.487 79.591 217.424 79.591ZM234.085 91.357C234.11 91.3324 234.147 91.32 234.196 91.32C234.27 91.32 234.332 91.3694 234.381 91.468C234.43 91.542 234.43 91.6037 234.381 91.653C233.567 92.615 232.827 93.3427 232.161 93.836C231.495 94.3047 230.854 94.539 230.237 94.539C229.744 94.539 229.374 94.391 229.127 94.095C228.905 93.799 228.794 93.3304 228.794 92.689C228.794 92.2944 228.856 91.7024 228.979 90.913L229.571 87.398C228.51 89.6427 227.289 91.4187 225.908 92.726C224.527 94.0334 223.182 94.687 221.875 94.687C221.135 94.687 220.555 94.465 220.136 94.021C219.741 93.5524 219.544 92.8494 219.544 91.912C219.544 91.69 219.569 91.3324 219.618 90.839C219.865 89.137 220.518 87.398 221.579 85.622C222.664 83.8214 223.935 82.3414 225.39 81.182C226.845 80.0227 228.214 79.443 229.497 79.443C230.533 79.443 231.372 79.776 232.013 80.442C232.482 80.0474 232.802 79.6157 232.975 79.147C233.024 79.0977 233.074 79.073 233.123 79.073C233.197 79.073 233.271 79.0977 233.345 79.147C233.419 79.1717 233.444 79.1964 233.419 79.221L231.273 90.913C231.199 91.283 231.162 91.616 231.162 91.912C231.162 92.6027 231.372 92.948 231.791 92.948C232.309 92.948 233.074 92.4177 234.085 91.357ZM223.54 92.578C224.379 92.578 225.254 92.1464 226.167 91.283C227.104 90.4197 227.931 89.3344 228.646 88.027C229.386 86.7197 229.879 85.4617 230.126 84.253C230.2 83.9077 230.237 83.5747 230.237 83.254C230.237 82.5387 230.052 81.9714 229.682 81.552C229.312 81.1327 228.782 80.923 228.091 80.923C227.252 80.923 226.414 81.2684 225.575 81.959C224.736 82.625 224.009 83.55 223.392 84.734C222.775 85.918 222.356 87.25 222.134 88.73C222.035 89.5194 221.986 90.0374 221.986 90.284C221.986 91.8134 222.504 92.578 223.54 92.578ZM248.016 79.443C248.954 79.443 249.694 79.8007 250.236 80.516C250.779 81.2314 251.05 82.181 251.05 83.365C251.05 83.9077 251.001 84.4257 250.902 84.919C250.508 86.917 249.743 88.656 248.608 90.136C247.498 91.616 246.24 92.7507 244.834 93.54C243.428 94.3047 242.121 94.687 240.912 94.687C239.753 94.687 238.828 94.4404 238.137 93.947C237.447 93.429 237.101 92.7507 237.101 91.912C237.101 91.764 237.126 91.542 237.175 91.246L240.838 71.636C240.888 71.414 240.912 71.1304 240.912 70.785C240.912 70.0944 240.653 69.749 240.135 69.749C239.741 69.749 239.161 69.934 238.396 70.304H238.359C238.261 70.304 238.187 70.2424 238.137 70.119C238.113 69.971 238.15 69.8847 238.248 69.86L243.317 67.381H243.391C243.49 67.381 243.576 67.418 243.65 67.492C243.749 67.566 243.786 67.6277 243.761 67.677L240.468 85.992C241.307 84.0434 242.405 82.4647 243.761 81.256C245.143 80.0474 246.561 79.443 248.016 79.443ZM248.09 86.066C248.238 85.4 248.312 84.7587 248.312 84.142C248.312 83.2787 248.14 82.6004 247.794 82.107C247.474 81.6137 246.968 81.367 246.277 81.367C245.291 81.367 244.353 81.7617 243.465 82.551C242.577 83.3157 241.788 84.401 241.097 85.807C240.431 87.213 239.938 88.8287 239.617 90.654C239.593 90.7774 239.58 90.95 239.58 91.172C239.58 91.9367 239.839 92.5534 240.357 93.022C240.875 93.4907 241.554 93.725 242.392 93.725C243.182 93.725 243.959 93.4167 244.723 92.8C245.513 92.1834 246.203 91.2954 246.795 90.136C247.387 88.9767 247.819 87.62 248.09 86.066ZM267.272 91.357C267.297 91.3324 267.334 91.32 267.383 91.32C267.457 91.32 267.519 91.3694 267.568 91.468C267.618 91.542 267.618 91.6037 267.568 91.653C266.754 92.615 266.014 93.3427 265.348 93.836C264.682 94.3047 264.041 94.539 263.424 94.539C262.931 94.539 262.561 94.391 262.314 94.095C262.092 93.799 261.981 93.3304 261.981 92.689C261.981 92.2944 262.043 91.7024 262.166 90.913L262.758 87.398C261.698 89.6427 260.477 91.4187 259.095 92.726C257.714 94.0334 256.37 94.687 255.062 94.687C254.322 94.687 253.743 94.465 253.323 94.021C252.929 93.5524 252.731 92.8494 252.731 91.912C252.731 91.69 252.756 91.3324 252.805 90.839C253.052 89.137 253.706 87.398 254.766 85.622C255.852 83.8214 257.122 82.3414 258.577 81.182C260.033 80.0227 261.402 79.443 262.684 79.443C263.72 79.443 264.559 79.776 265.2 80.442C265.669 80.0474 265.99 79.6157 266.162 79.147C266.212 79.0977 266.261 79.073 266.31 79.073C266.384 79.073 266.458 79.0977 266.532 79.147C266.606 79.1717 266.631 79.1964 266.606 79.221L264.46 90.913C264.386 91.283 264.349 91.616 264.349 91.912C264.349 92.6027 264.559 92.948 264.978 92.948C265.496 92.948 266.261 92.4177 267.272 91.357ZM256.727 92.578C257.566 92.578 258.442 92.1464 259.354 91.283C260.292 90.4197 261.118 89.3344 261.833 88.027C262.573 86.7197 263.067 85.4617 263.313 84.253C263.387 83.9077 263.424 83.5747 263.424 83.254C263.424 82.5387 263.239 81.9714 262.869 81.552C262.499 81.1327 261.969 80.923 261.278 80.923C260.44 80.923 259.601 81.2684 258.762 81.959C257.924 82.625 257.196 83.55 256.579 84.734C255.963 85.918 255.543 87.25 255.321 88.73C255.223 89.5194 255.173 90.0374 255.173 90.284C255.173 91.8134 255.691 92.578 256.727 92.578ZM282.203 79.554C282.721 79.554 283.115 79.7514 283.387 80.146C283.658 80.5407 283.794 81.0834 283.794 81.774C283.794 83.7227 282.819 86.5594 280.871 90.284C278.947 94.0087 276.727 97.3264 274.211 100.237C271.695 103.148 269.61 104.603 267.958 104.603C267.44 104.603 267.02 104.48 266.7 104.233C266.379 104.011 266.219 103.653 266.219 103.16L266.256 102.827C266.453 102.013 267.02 101.606 267.958 101.606C268.204 101.606 268.599 101.631 269.142 101.68C269.635 101.729 270.005 101.754 270.252 101.754C271.066 101.754 271.744 101.544 272.287 101.125C273.002 100.656 273.939 99.6327 275.099 98.054L275.136 96.13C275.136 91.4434 274.766 87.8174 274.026 85.252C273.31 82.662 272.324 81.367 271.066 81.367C270.745 81.367 270.424 81.478 270.104 81.7C269.783 81.922 269.512 82.2427 269.29 82.662C269.265 82.736 269.191 82.773 269.068 82.773C268.895 82.773 268.821 82.699 268.846 82.551C269.29 81.6137 269.845 80.886 270.511 80.368C271.177 79.85 271.855 79.591 272.546 79.591C273.557 79.591 274.42 80.1707 275.136 81.33C275.876 82.4894 276.431 84.0804 276.801 86.103C277.195 88.101 277.393 90.3457 277.393 92.837C277.393 93.7004 277.38 94.354 277.356 94.798C278.367 93.2194 279.255 91.6654 280.02 90.136C280.809 88.6067 281.315 87.435 281.537 86.621C281.66 86.0044 281.722 85.511 281.722 85.141C281.722 84.623 281.66 84.1544 281.537 83.735C281.413 83.3157 281.241 82.8594 281.019 82.366C280.92 82.1194 280.821 81.885 280.723 81.663C280.649 81.4164 280.612 81.1944 280.612 80.997C280.612 80.5777 280.76 80.2324 281.056 79.961C281.352 79.6897 281.734 79.554 282.203 79.554ZM300.459 91.357C300.484 91.3324 300.521 91.32 300.57 91.32C300.644 91.32 300.706 91.3694 300.755 91.468C300.805 91.542 300.805 91.6037 300.755 91.653C299.941 92.615 299.201 93.3427 298.535 93.836C297.869 94.3047 297.228 94.539 296.611 94.539C296.118 94.539 295.748 94.391 295.501 94.095C295.279 93.799 295.168 93.3304 295.168 92.689C295.168 92.2944 295.23 91.7024 295.353 90.913L295.945 87.398C294.885 89.6427 293.664 91.4187 292.282 92.726C290.901 94.0334 289.557 94.687 288.249 94.687C287.509 94.687 286.93 94.465 286.51 94.021C286.116 93.5524 285.918 92.8494 285.918 91.912C285.918 91.69 285.943 91.3324 285.992 90.839C286.239 89.137 286.893 87.398 287.953 85.622C289.039 83.8214 290.309 82.3414 291.764 81.182C293.22 80.0227 294.589 79.443 295.871 79.443C296.907 79.443 297.746 79.776 298.387 80.442C298.856 80.0474 299.177 79.6157 299.349 79.147C299.399 79.0977 299.448 79.073 299.497 79.073C299.571 79.073 299.645 79.0977 299.719 79.147C299.793 79.1717 299.818 79.1964 299.793 79.221L297.647 90.913C297.573 91.283 297.536 91.616 297.536 91.912C297.536 92.6027 297.746 92.948 298.165 92.948C298.683 92.948 299.448 92.4177 300.459 91.357ZM289.914 92.578C290.753 92.578 291.629 92.1464 292.541 91.283C293.479 90.4197 294.305 89.3344 295.02 88.027C295.76 86.7197 296.254 85.4617 296.5 84.253C296.574 83.9077 296.611 83.5747 296.611 83.254C296.611 82.5387 296.426 81.9714 296.056 81.552C295.686 81.1327 295.156 80.923 294.465 80.923C293.627 80.923 292.788 81.2684 291.949 81.959C291.111 82.625 290.383 83.55 289.766 84.734C289.15 85.918 288.73 87.25 288.508 88.73C288.41 89.5194 288.36 90.0374 288.36 90.284C288.36 91.8134 288.878 92.578 289.914 92.578Z" fill="#1B3E5C"/>
</svg>
