<svg width="748" height="748" viewBox="0 0 748 748" fill="none" xmlns="http://www.w3.org/2000/svg">
<path fill-rule="evenodd" clip-rule="evenodd" d="M374 0C401.809 0 428.91 3.03522 454.988 8.79243L454.989 9.88512C455.009 59.1784 455.028 103.636 437.622 130.074C424.756 145.308 417 164.998 417 186.5C417 234.825 456.175 274 504.5 274C552.825 274 592 234.825 592 186.5C592 165.325 584.631 146.084 571.973 130.786C560.04 109.314 557.447 80.3816 557.416 47.9879C654.288 102.606 724.374 199.151 743.05 313H4.94986C23.8183 197.979 95.1601 100.62 193.583 46.3149C193.64 79.3851 191.166 108.946 179.027 130.786C166.369 146.084 159 165.325 159 186.5C159 234.825 198.175 274 246.5 274C294.825 274 334 234.825 334 186.5C334 164.998 326.244 145.308 313.378 130.074C295.972 103.636 295.991 59.1784 296.011 9.88512L296.012 8.14305C321.167 2.80721 347.255 0 374 0ZM374 748C580.555 748 748 580.555 748 374H0C0 407.187 4.32254 439.364 12.4354 470H295.402C309.835 441.52 339.388 422 373.5 422C421.825 422 461 461.175 461 509.5C461 557.825 421.825 597 373.5 597C339.388 597 309.835 577.48 295.402 549H43.3841C106.171 667.373 230.67 748 374 748Z" fill="#1B3E5C"/>
</svg>
